# This file uses centimeters as units for non-parametric coordinates.

mtllib Goal.mtl
g default
v -4.152828 -4.614202 8.625128
v -4.152828 -4.152828 9.086502
v -4.614202 -4.152828 8.625128
v 4.614202 -4.152828 8.625128
v 4.152828 -4.152828 9.086502
v 4.152828 -4.614202 8.625128
v -4.614202 4.152828 8.625128
v -4.152828 4.152828 9.086502
v -4.152828 4.614202 8.625128
v 4.152828 4.614202 8.625128
v 4.152828 4.152828 9.086502
v 4.614202 4.152828 8.625128
v -4.614202 4.152828 0.319471
v -4.152828 4.614202 0.319471
v -4.152828 4.152828 -0.141903
v 4.152828 4.152828 -0.141903
v 4.152828 4.614202 0.319471
v 4.614202 4.152828 0.319471
v -4.614202 -4.152828 0.319471
v -4.152828 -4.152828 -0.141903
v -4.152828 -4.614202 0.319471
v 4.152828 -4.614202 0.319471
v 4.152828 -4.152828 -0.141903
v 4.614202 -4.152828 0.319471
v -4.383493 -3.945187 8.417486
v -4.383493 -3.945187 0.527112
v -3.945187 -4.383493 0.527112
v -3.945187 -4.383493 8.417486
v 3.945187 -4.383493 8.417486
v 3.945187 -3.945187 8.855791
v -3.945187 -3.945187 8.855791
v -3.945187 3.945187 8.855791
v -4.383493 3.945187 8.417486
v 3.945187 -4.383493 0.527112
v 4.383493 -3.945187 0.527112
v 4.383493 -3.945187 8.417486
v 4.383493 3.945187 8.417486
v 3.945187 3.945187 8.855791
v -3.945187 4.383493 8.417486
v -3.945187 4.383493 0.527112
v -4.383493 3.945187 0.527112
v 3.945187 4.383493 8.417486
v 4.383493 3.945187 0.527112
v 3.945187 4.383493 0.527112
v -3.945187 3.945187 0.088807
v -3.945187 -3.945187 0.088807
v 3.945187 3.945187 0.088807
v 3.945187 -3.945187 0.088807
vt 0.387499 0.987501
vt 0.375000 0.987501
vt 0.375000 0.762499
vt 0.387499 0.000000
vt 0.387499 0.012499
vt 0.625000 0.987501
vt 0.612501 0.987501
vt 0.625000 0.762499
vt 0.637499 0.012499
vt 0.375000 0.262499
vt 0.375000 0.487501
vt 0.387499 0.237501
vt 0.612501 0.237501
vt 0.625000 0.262499
vt 0.375000 0.512499
vt 0.375000 0.737501
vt 0.387499 0.487501
vt 0.612501 0.487501
vt 0.625000 0.512499
vt 0.625000 0.737501
vt 0.387499 0.737501
vt 0.612501 0.737501
vt 0.612501 0.762499
vt 0.612501 0.012499
vt 0.387499 0.262499
vt 0.612501 0.262499
vt 0.387499 0.512499
vt 0.612501 0.512499
vt 0.387499 0.762499
vt 0.362501 0.012499
vt 0.362501 0.237501
vt 0.612501 0.000000
vt 0.637499 0.237501
vt 0.625000 0.487501
vt 0.000000 0.000000
vt 1.000000 0.000000
vt 1.000000 1.000000
vt 0.000000 1.000000
vt 0.000000 0.000000
vt 1.000000 0.000000
vt 1.000000 1.000000
vt 0.000000 1.000000
vt 0.000000 0.000000
vt 1.000000 0.000000
vt 1.000000 1.000000
vt 0.000000 1.000000
vt 0.000000 0.000000
vt 1.000000 0.000000
vt 1.000000 1.000000
vt 0.000000 1.000000
vt 0.000000 0.000000
vt 1.000000 0.000000
vt 1.000000 1.000000
vt 0.000000 1.000000
vt 0.000000 0.000000
vt 1.000000 0.000000
vt 1.000000 1.000000
vt 0.000000 1.000000
vt 0.000000 0.000000
vt 1.000000 0.000000
vt 1.000000 1.000000
vt 0.000000 1.000000
vt 0.000000 0.000000
vt 1.000000 0.000000
vt 1.000000 1.000000
vt 0.000000 1.000000
vt 0.000000 0.000000
vt 1.000000 0.000000
vt 1.000000 1.000000
vt 0.000000 1.000000
vt 0.000000 0.000000
vt 1.000000 0.000000
vt 1.000000 1.000000
vt 0.000000 1.000000
vt 0.000000 0.000000
vt 1.000000 0.000000
vt 1.000000 1.000000
vt 0.000000 1.000000
vt 0.000000 0.000000
vt 1.000000 0.000000
vt 1.000000 1.000000
vt 0.000000 1.000000
vt 0.000000 0.000000
vt 1.000000 0.000000
vt 1.000000 1.000000
vt 0.000000 1.000000
vt 0.000000 0.000000
vt 1.000000 0.000000
vt 1.000000 1.000000
vt 0.000000 1.000000
vt 0.000000 0.000000
vt 1.000000 0.000000
vt 1.000000 1.000000
vt 0.000000 1.000000
vt 0.000000 0.000000
vt 1.000000 0.000000
vt 1.000000 1.000000
vt 0.000000 1.000000
vt 0.000000 0.000000
vt 1.000000 0.000000
vt 1.000000 1.000000
vt 0.000000 1.000000
vt 0.000000 0.000000
vt 1.000000 0.000000
vt 1.000000 1.000000
vt 0.000000 1.000000
vt 0.000000 0.000000
vt 1.000000 0.000000
vt 1.000000 1.000000
vt 0.000000 1.000000
vt 0.000000 0.000000
vt 1.000000 0.000000
vt 1.000000 1.000000
vt 0.000000 1.000000
vt 0.000000 0.000000
vt 1.000000 0.000000
vt 1.000000 1.000000
vt 0.000000 1.000000
vt 0.000000 0.000000
vt 1.000000 0.000000
vt 1.000000 1.000000
vt 0.000000 1.000000
vt 0.000000 0.000000
vt 1.000000 0.000000
vt 1.000000 1.000000
vt 0.000000 1.000000
vt 0.000000 0.000000
vt 1.000000 0.000000
vt 1.000000 1.000000
vt 0.000000 1.000000
vt 0.000000 0.000000
vt 1.000000 0.000000
vt 1.000000 0.078559
vt 0.000000 0.078559
vt 0.000000 0.000000
vt 1.000000 0.000000
vt 1.000000 0.078559
vt 0.000000 0.078559
vt 0.000000 0.000000
vt 1.000000 0.000000
vt 1.000000 0.078559
vt 0.000000 0.078559
vt 0.000000 0.000000
vt 1.000000 0.000000
vt 0.500000 0.866025
vt 0.000000 0.000000
vt 1.000000 0.000000
vt 1.000000 0.078559
vt 0.000000 0.078559
vt 0.000000 0.000000
vt 1.000000 0.000000
vt 1.000000 0.078559
vt 0.000000 0.078559
vt 0.000000 0.000000
vt 1.000000 0.000000
vt 0.499999 0.866026
vt 0.000000 0.000000
vt 1.000000 0.000000
vt 1.000000 0.078559
vt 0.000000 0.078559
vt 0.000000 0.078559
vt 1.000000 0.078559
vt 1.000000 0.000000
vt 0.000000 0.000000
vt 0.000000 0.000000
vt 1.000000 0.000000
vt 0.499999 0.866026
vt 0.000000 0.000000
vt 1.000000 0.000000
vt 1.000000 0.078559
vt 0.000000 0.078559
vt 0.000000 0.000000
vt 1.000000 0.000000
vt 1.000000 0.078559
vt 0.000000 0.078559
vt 0.000000 0.000000
vt 1.000000 0.000000
vt 0.499999 0.866026
vt 0.000000 0.000000
vt 1.000000 0.000000
vt 0.499999 0.866026
vt 0.000000 0.000000
vt 1.000000 0.000000
vt 1.000000 0.078559
vt 0.000000 0.078559
vt 0.000000 0.078559
vt 1.000000 0.078559
vt 1.000000 0.000000
vt 0.000000 0.000000
vt 0.000000 0.000000
vt 1.000000 0.000000
vt 1.000000 0.078559
vt 0.000000 0.078559
vt 0.000000 0.000000
vt 1.000000 0.000000
vt 0.500000 0.866025
vt 0.000000 0.000000
vt 1.000000 0.000000
vt 0.500000 0.866025
vn -0.707107 -0.707107 0.000000
vn -0.707107 -0.707107 0.000000
vn -0.707107 -0.707107 0.000000
vn -0.707107 -0.707107 0.000000
vn 0.000000 -0.707107 0.707107
vn 0.000000 -0.707107 0.707107
vn 0.000000 -0.707107 0.707107
vn 0.000000 -0.707107 0.707107
vn -0.707107 0.000000 0.707107
vn -0.707107 0.000000 0.707107
vn -0.707107 0.000000 0.707107
vn -0.707107 0.000000 0.707107
vn 0.707107 -0.707107 0.000000
vn 0.707107 -0.707107 0.000000
vn 0.707107 -0.707107 0.000000
vn 0.707107 -0.707107 0.000000
vn 0.707107 0.000000 0.707107
vn 0.707107 0.000000 0.707107
vn 0.707107 0.000000 0.707107
vn 0.707107 0.000000 0.707107
vn -0.707107 0.707107 0.000000
vn -0.707107 0.707107 0.000000
vn -0.707107 0.707107 0.000000
vn -0.707107 0.707107 0.000000
vn 0.000000 0.707107 0.707107
vn 0.000000 0.707107 0.707107
vn 0.000000 0.707107 0.707107
vn 0.000000 0.707107 0.707107
vn 0.707107 0.707107 0.000000
vn 0.707107 0.707107 0.000000
vn 0.707107 0.707107 0.000000
vn 0.707107 0.707107 0.000000
vn -0.707107 0.000000 -0.707107
vn -0.707107 0.000000 -0.707107
vn -0.707107 0.000000 -0.707107
vn -0.707107 0.000000 -0.707107
vn 0.000000 0.707107 -0.707107
vn 0.000000 0.707107 -0.707107
vn 0.000000 0.707107 -0.707107
vn 0.000000 0.707107 -0.707107
vn 0.707107 0.000000 -0.707107
vn 0.707107 0.000000 -0.707107
vn 0.707107 0.000000 -0.707107
vn 0.707107 0.000000 -0.707107
vn 0.000000 -0.707107 -0.707107
vn 0.000000 -0.707107 -0.707107
vn 0.000000 -0.707107 -0.707107
vn 0.000000 -0.707107 -0.707107
vn -0.577351 -0.577350 0.577350
vn -0.577351 -0.577350 0.577350
vn -0.577351 -0.577350 0.577350
vn 0.577351 -0.577350 0.577350
vn 0.577351 -0.577350 0.577350
vn 0.577351 -0.577350 0.577350
vn -0.577351 0.577350 0.577350
vn -0.577351 0.577350 0.577350
vn -0.577351 0.577350 0.577350
vn 0.577351 0.577350 0.577350
vn 0.577351 0.577350 0.577350
vn 0.577351 0.577350 0.577350
vn -0.577350 0.577350 -0.577350
vn -0.577350 0.577350 -0.577350
vn -0.577350 0.577350 -0.577350
vn 0.577350 0.577350 -0.577350
vn 0.577350 0.577350 -0.577350
vn 0.577350 0.577350 -0.577350
vn -0.577350 -0.577350 -0.577350
vn -0.577350 -0.577350 -0.577350
vn -0.577350 -0.577350 -0.577350
vn 0.577350 -0.577350 -0.577350
vn 0.577350 -0.577350 -0.577350
vn 0.577350 -0.577350 -0.577350
vn -0.668969 0.743290 0.000000
vn -0.668969 0.743290 0.000000
vn -0.668969 0.743290 0.000000
vn -0.668969 0.743290 0.000000
vn 0.743290 -0.668969 0.000000
vn 0.743290 -0.668969 0.000000
vn 0.743290 -0.668969 0.000000
vn 0.743290 -0.668969 0.000000
vn 0.000000 -0.668970 -0.743290
vn 0.000000 -0.668970 -0.743290
vn 0.000000 -0.668970 -0.743290
vn 0.000000 -0.668970 -0.743290
vn 0.000000 0.743291 0.668968
vn 0.000000 0.743291 0.668968
vn 0.000000 0.743291 0.668968
vn 0.000000 0.743291 0.668968
vn 0.743292 0.000000 0.668967
vn 0.743292 0.000000 0.668967
vn 0.743292 0.000000 0.668967
vn 0.743292 0.000000 0.668967
vn -0.668969 0.000000 -0.743290
vn -0.668969 0.000000 -0.743290
vn -0.668969 0.000000 -0.743290
vn -0.668969 0.000000 -0.743290
vn -0.743290 -0.668969 0.000000
vn -0.743290 -0.668969 0.000000
vn -0.743290 -0.668969 0.000000
vn -0.743290 -0.668969 0.000000
vn 0.668969 0.743290 0.000000
vn 0.668969 0.743290 0.000000
vn 0.668969 0.743290 0.000000
vn 0.668969 0.743290 0.000000
vn 0.668969 0.000000 -0.743290
vn 0.668969 0.000000 -0.743290
vn 0.668969 0.000000 -0.743290
vn 0.668969 0.000000 -0.743290
vn -0.743292 0.000000 0.668967
vn -0.743292 0.000000 0.668967
vn -0.743292 0.000000 0.668967
vn -0.743292 0.000000 0.668967
vn 0.743290 0.668969 0.000000
vn 0.743290 0.668969 0.000000
vn 0.743290 0.668969 0.000000
vn 0.743290 0.668969 0.000000
vn -0.668969 -0.743290 0.000000
vn -0.668969 -0.743290 0.000000
vn -0.668969 -0.743290 0.000000
vn -0.668969 -0.743290 0.000000
vn 0.000000 -0.743291 0.668968
vn 0.000000 -0.743291 0.668968
vn 0.000000 -0.743291 0.668968
vn 0.000000 -0.743291 0.668968
vn 0.000000 0.668970 -0.743290
vn 0.000000 0.668970 -0.743290
vn 0.000000 0.668970 -0.743290
vn 0.000000 0.668970 -0.743290
vn 0.668969 -0.743290 0.000000
vn 0.668969 -0.743290 0.000000
vn 0.668969 -0.743290 0.000000
vn 0.668969 -0.743290 0.000000
vn -0.743290 0.668969 0.000000
vn -0.743290 0.668969 0.000000
vn -0.743290 0.668969 0.000000
vn -0.743290 0.668969 0.000000
vn 0.743291 0.000000 -0.668968
vn 0.743291 0.000000 -0.668968
vn 0.743291 0.000000 -0.668968
vn 0.743291 0.000000 -0.668968
vn -0.668970 0.000000 0.743289
vn -0.668970 0.000000 0.743289
vn -0.668970 0.000000 0.743289
vn -0.668970 0.000000 0.743289
vn 0.000000 0.668970 0.743290
vn 0.000000 0.668970 0.743290
vn 0.000000 0.668970 0.743290
vn 0.000000 0.668970 0.743290
vn 0.000000 -0.743291 -0.668969
vn 0.000000 -0.743291 -0.668969
vn 0.000000 -0.743291 -0.668968
vn 0.000000 -0.743291 -0.668968
vn 0.668970 0.000000 0.743289
vn 0.668970 0.000000 0.743289
vn 0.668970 0.000000 0.743289
vn 0.668970 0.000000 0.743289
vn -0.743291 0.000000 -0.668968
vn -0.743291 0.000000 -0.668968
vn -0.743291 0.000000 -0.668968
vn -0.743291 0.000000 -0.668968
vn 0.000000 0.743291 -0.668969
vn 0.000000 0.743291 -0.668969
vn 0.000000 0.743291 -0.668968
vn 0.000000 0.743291 -0.668968
vn 0.000000 -0.668970 0.743290
vn 0.000000 -0.668970 0.743290
vn 0.000000 -0.668970 0.743290
vn 0.000000 -0.668970 0.743290
vn 0.707107 0.000000 0.707107
vn 0.707107 0.000000 0.707107
vn 0.707107 0.000000 0.707107
vn 0.707107 0.000000 0.707107
vn 0.707107 0.707107 0.000000
vn 0.707107 0.707107 0.000000
vn 0.707107 0.707107 0.000000
vn 0.707107 0.707107 0.000000
vn 0.000000 0.707107 0.707107
vn 0.000000 0.707107 0.707107
vn 0.000000 0.707107 0.707107
vn 0.000000 0.707107 0.707107
vn 0.577350 0.577350 0.577350
vn 0.577350 0.577350 0.577350
vn 0.577350 0.577350 0.577350
vn 0.000000 0.707106 -0.707108
vn 0.000000 0.707106 -0.707108
vn 0.000000 0.707106 -0.707108
vn 0.000000 0.707106 -0.707108
vn 0.707106 0.000000 -0.707108
vn 0.707106 0.000000 -0.707108
vn 0.707106 0.000000 -0.707108
vn 0.707106 0.000000 -0.707108
vn 0.577349 0.577350 -0.577351
vn 0.577349 0.577350 -0.577351
vn 0.577349 0.577350 -0.577351
vn 0.707107 -0.707107 0.000000
vn 0.707107 -0.707107 0.000000
vn 0.707107 -0.707107 0.000000
vn 0.707107 -0.707107 0.000000
vn 0.000000 -0.707106 -0.707108
vn 0.000000 -0.707106 -0.707108
vn 0.000000 -0.707106 -0.707108
vn 0.000000 -0.707106 -0.707108
vn 0.577349 -0.577350 -0.577351
vn 0.577349 -0.577350 -0.577351
vn 0.577349 -0.577350 -0.577351
vn -0.707107 0.707107 0.000000
vn -0.707107 0.707107 0.000000
vn -0.707107 0.707107 0.000000
vn -0.707107 0.707107 0.000000
vn -0.707106 0.000000 -0.707108
vn -0.707106 0.000000 -0.707108
vn -0.707106 0.000000 -0.707108
vn -0.707106 0.000000 -0.707108
vn -0.577349 0.577350 -0.577351
vn -0.577349 0.577350 -0.577351
vn -0.577349 0.577350 -0.577351
vn -0.577349 -0.577350 -0.577351
vn -0.577349 -0.577350 -0.577351
vn -0.577349 -0.577350 -0.577351
vn -0.707107 -0.707107 0.000000
vn -0.707107 -0.707107 0.000000
vn -0.707107 -0.707107 0.000000
vn -0.707107 -0.707107 0.000000
vn 0.000000 -0.707107 0.707107
vn 0.000000 -0.707107 0.707107
vn 0.000000 -0.707107 0.707107
vn 0.000000 -0.707107 0.707107
vn -0.707107 0.000000 0.707107
vn -0.707107 0.000000 0.707107
vn -0.707107 0.000000 0.707107
vn -0.707107 0.000000 0.707107
vn -0.577350 -0.577350 0.577350
vn -0.577350 -0.577350 0.577350
vn -0.577350 -0.577350 0.577350
vn -0.577350 0.577350 0.577350
vn -0.577350 0.577350 0.577350
vn -0.577350 0.577350 0.577350
s off
g pCube1
usemtl initialShadingGroup
f 1/1/1 3/2/2 19/3/3 21/29/4
f 2/5/5 1/4/6 6/32/7 5/24/8
f 3/30/9 2/5/10 8/12/11 7/31/12
f 4/6/13 6/7/14 22/23/15 24/8/16
f 5/24/17 4/9/18 12/33/19 11/13/20
f 7/10/21 9/25/22 14/17/23 13/11/24
f 9/25/25 8/12/26 11/13/27 10/26/28
f 10/26/29 12/14/30 18/34/31 17/18/32
f 13/15/33 15/27/34 20/21/35 19/16/36
f 15/27/37 14/17/38 17/18/39 16/28/40
f 16/28/41 18/19/42 24/20/43 23/22/44
f 21/29/45 20/21/46 23/22/47 22/23/48
f 1/4/49 2/5/50 3/30/51
f 4/9/52 5/24/53 6/32/54
f 7/31/55 8/12/56 9/25/57
f 10/26/58 11/13/59 12/33/60
f 13/11/61 14/17/62 15/27/63
f 16/28/64 17/18/65 18/34/66
f 19/16/67 20/21/68 21/29/69
f 22/23/70 23/22/71 24/20/72
f 19/35/73 3/36/74 25/37/75 26/38/76
f 1/39/77 21/40/78 27/41/79 28/42/80
f 6/43/81 1/44/82 28/45/83 29/46/84
f 2/47/85 5/48/86 30/49/87 31/50/88
f 8/51/89 2/52/90 31/53/91 32/54/92
f 3/55/93 7/56/94 33/57/95 25/58/96
f 22/59/97 6/60/98 29/61/99 34/62/100
f 4/63/101 24/64/102 35/65/103 36/66/104
f 12/67/105 4/68/106 36/69/107 37/70/108
f 5/71/109 11/72/110 38/73/111 30/74/112
f 14/75/113 9/76/114 39/77/115 40/78/116
f 7/79/117 13/80/118 41/81/119 33/82/120
f 11/83/121 8/84/122 32/85/123 38/86/124
f 9/87/125 10/88/126 42/89/127 39/90/128
f 18/91/129 12/92/130 37/93/131 43/94/132
f 10/95/133 17/96/134 44/97/135 42/98/136
f 20/99/137 15/100/138 45/101/139 46/102/140
f 13/103/141 19/104/142 26/105/143 41/106/144
f 17/107/145 14/108/146 40/109/147 44/110/148
f 15/111/149 16/112/150 47/113/151 45/114/152
f 24/115/153 18/116/154 43/117/155 35/118/156
f 16/119/157 23/120/158 48/121/159 47/122/160
f 23/123/161 20/124/162 46/125/163 48/126/164
f 21/127/165 22/128/166 34/129/167 27/130/168
f 46/131/169 45/132/170 41/133/171 26/134/172
f 28/135/173 27/136/174 26/137/175 25/138/176
f 27/139/177 34/140/178 48/141/179 46/142/180
f 26/143/181 27/144/182 46/145/183
f 31/146/184 30/147/185 29/148/186 28/149/187
f 32/150/188 31/151/189 25/152/190 33/153/191
f 31/154/192 28/155/193 25/156/194
f 33/157/195 41/158/196 40/159/197 39/160/198
f 38/161/199 32/162/200 39/163/201 42/164/202
f 32/165/203 33/166/204 39/167/205
f 36/168/206 35/169/207 34/170/208 29/171/209
f 37/172/210 36/173/211 30/174/212 38/175/213
f 30/176/214 36/177/215 29/178/216
f 38/179/217 42/180/218 37/181/219
f 42/182/220 44/183/221 43/184/222 37/185/223
f 44/186/224 40/187/225 45/188/226 47/189/227
f 35/190/228 43/191/229 47/192/230 48/193/231
f 43/194/232 44/195/233 47/196/234
f 34/197/235 35/198/236 48/199/237
